# xmcd
#
# Track frame offsets:
#	150
#	15191
#	31790
#	46751
#	62047
#	77343
#	92535
#	106759
#	123483
#	138947
#	154282
#
# Disc length: 2235 seconds
#
# Revision: 1
# Processed by: cddbd v1.4PL0 Copyright (c) Steve Scherf et al.
# Submitted via: EasyCDDAExtractor 6.0.0.1
#
DISCID=7208b90b
DTITLE=The Traveling Wilburys - Volume 3
DYEAR=1900
DGENRE=Blues
TTITLE0=She's My Baby
TTITLE1=Inside Out
TTITLE2=If You Belonged To Me
TTITLE3=The Devil's Been Busy
TTITLE4=7 Deadly Sins
TTITLE5=Poor House
TTITLE6=Where Were You Last Night?
TTITLE7=Cool Dry Place
TTITLE8=New Blue Moon
TTITLE9=You Took My Breath Away
TTITLE10=Wilbury Twist
EXTD=
EXTT0=
EXTT1=
EXTT2=
EXTT3=
EXTT4=
EXTT5=
EXTT6=
EXTT7=
EXTT8=
EXTT9=
EXTT10=
PLAYORDER=
